<svg width="432" height="432" viewBox="0 0 432 432" fill="none" xmlns="http://www.w3.org/2000/svg">
<path d="M101.339 88.5029C44.1016 96.7876 0 145.793 0 204.845C0 262.679 42.3126 310.862 97.8304 320.603C101.086 382.576 152.924 432 216.181 432C277.338 432 329.42 381.835 334.292 320.491C389.745 310.702 432 262.549 432 204.753C432 145.844 388.101 96.918 331.041 88.4664C317.949 36.9904 271.309 1.51816e-05 216.181 1.51816e-05C160.944 1.51816e-05 114.42 37.688 101.339 88.5029V88.5029ZM139.159 117.593C139.159 75.4539 173.712 41.1716 216.181 41.1716C255.889 41.1716 288.832 70.678 292.809 109.805L292.811 109.818C293.072 112.38 293.203 114.997 293.203 117.591C293.203 159.718 258.662 194.001 216.202 194.01H216.181C173.712 194.01 139.159 159.728 139.159 117.593V117.593ZM280.939 216.034C309.705 197.342 329.822 166.583 333.925 131.07C366.502 139.979 390.503 169.638 390.503 204.753C390.503 241.481 364.25 272.243 329.384 279.535C321.094 253.086 303.649 230.787 280.939 216.034V216.034ZM41.4966 204.845C41.4966 169.732 65.4839 140.077 98.0725 131.161C102.176 166.676 122.29 197.432 151.059 216.124C128.349 230.881 110.902 253.178 102.614 279.624C67.7478 272.33 41.4966 241.572 41.4966 204.845V204.845ZM139.159 314.409C139.159 284.164 156.963 257.968 182.64 245.589C182.802 245.513 182.968 245.44 183.129 245.362C183.913 244.992 184.706 244.639 185.503 244.292C186.223 243.985 186.944 243.688 187.677 243.404C187.903 243.313 188.127 243.224 188.355 243.134C196.841 239.905 206.01 238.118 215.533 238.086L219.321 238.073C256.493 239.573 287.716 267.625 292.551 304.414L293.431 311.132H293.203C293.203 354.332 257.931 390.828 216.181 390.828C173.712 390.828 139.159 356.548 139.159 314.409" fill="black"/>
</svg>
