<svg width="172" height="172" viewBox="0 0 172 172" fill="none" xmlns="http://www.w3.org/2000/svg">
<path fill-rule="evenodd" clip-rule="evenodd" d="M76.2438 1.22354C61.1967 4.54236 50.2763 13.1961 43.4341 27.2249L39.6105 35.0644L34.1156 36.594C11.6786 42.8413 -3.01221 65.5864 0.52473 88.602C3.27222 106.482 17.7561 122.744 34.6935 126.967L38.9347 128.024L39.5446 133.371C40.4742 141.511 45.9966 151.662 53.2537 158.569C72.3359 176.732 100.134 176.443 118.918 157.887C125.351 151.532 130.955 141.679 132.122 134.671C133.187 128.281 133.388 128.019 138.336 126.59C153.682 122.156 167.702 107.167 170.939 91.7348C176.005 67.5817 161.957 43.9288 138.324 36.8191C134.664 35.718 131.665 34.3963 131.66 33.8834C131.655 33.3696 130.205 29.9582 128.437 26.3007C122.182 13.3641 108.201 2.98008 94.1024 0.801428C86.5468 -0.366875 83.0823 -0.284268 76.2438 1.22354ZM98.7604 19.9763C117.198 28.4413 121.929 52.5045 108.049 67.2122C105.793 69.6033 101.629 72.6879 98.7961 74.0668C94.379 76.2164 92.5336 76.5704 85.86 76.5514C77.0854 76.5269 72.4705 74.8357 65.8546 69.222C61.1692 65.2469 56.6239 56.2808 55.9334 49.6514C54.8097 38.8607 60.6829 27.3964 70.496 21.229C77.9756 16.5268 90.081 15.9903 98.7604 19.9763ZM42.6273 66.1347C44.9544 71.4678 51.9889 80.512 56.0442 83.3824C57.8081 84.6305 59.2505 85.856 59.2505 86.1057C59.2505 86.3553 57.8081 87.5808 56.0442 88.829C51.8634 91.7883 44.8766 100.847 42.5659 106.304C41.5613 108.675 40.28 110.612 39.7177 110.606C36.8713 110.582 29.051 105.827 25.3199 101.852C11.7043 87.3475 16.0178 63.6701 33.8839 54.8456L38.648 52.4927L39.7461 57.2712C40.3505 59.8992 41.6474 63.888 42.6273 66.1347ZM139.052 55.2786C141.068 56.2981 144.323 58.7727 146.286 60.7779C157.795 72.5318 157.698 91.1529 146.068 102.681C142.818 105.901 134.383 110.66 132.109 110.556C131.606 110.532 129.795 107.611 128.086 104.063C125.983 99.6986 123.102 95.7535 119.174 91.86L113.369 86.1057L119.161 80.364C125.585 73.9969 131.142 64.2202 132.16 57.4954C132.866 52.8295 133.686 52.5653 139.052 55.2786ZM98.2237 97.8032C103.949 100.311 110.006 106.058 113.161 111.977C115.22 115.839 115.584 117.667 115.602 124.232C115.621 130.725 115.237 132.768 113.179 137.119C106.452 151.344 90.56 158.38 76.3765 153.413C69.7917 151.108 65.6329 148.045 61.5914 142.526C58.3173 138.056 55.6376 130.229 55.6376 125.14C55.6376 116.788 61.019 106.301 68.0205 101.008C76.0322 94.9501 88.656 93.6111 98.2237 97.8032Z" fill="#009688"/>
</svg>
