<svg width="1044" height="432" viewBox="0 0 1044 432" fill="none" xmlns="http://www.w3.org/2000/svg">
<path d="M101.339 88.5029C44.1016 96.7876 0 145.793 0 204.845C0 262.679 42.3126 310.862 97.8304 320.603C101.086 382.576 152.924 432 216.181 432C277.338 432 329.42 381.835 334.292 320.491C389.745 310.702 432 262.549 432 204.753C432 145.844 388.101 96.918 331.041 88.4664C317.949 36.9904 271.309 1.51816e-05 216.181 1.51816e-05C160.944 1.51816e-05 114.42 37.688 101.339 88.5029V88.5029ZM139.159 117.593C139.159 75.4539 173.712 41.1716 216.181 41.1716C255.889 41.1716 288.832 70.678 292.809 109.805L292.811 109.818C293.072 112.38 293.203 114.997 293.203 117.591C293.203 159.718 258.662 194.001 216.202 194.01H216.181C173.712 194.01 139.159 159.728 139.159 117.593V117.593ZM280.939 216.034C309.705 197.342 329.822 166.583 333.925 131.07C366.502 139.979 390.503 169.638 390.503 204.753C390.503 241.481 364.25 272.243 329.384 279.535C321.094 253.086 303.649 230.787 280.939 216.034V216.034ZM41.4966 204.845C41.4966 169.732 65.4839 140.077 98.0725 131.161C102.176 166.676 122.29 197.432 151.059 216.124C128.349 230.881 110.902 253.178 102.614 279.624C67.7478 272.33 41.4966 241.572 41.4966 204.845V204.845ZM139.159 314.409C139.159 284.164 156.963 257.968 182.64 245.589C182.802 245.513 182.968 245.44 183.129 245.362C183.913 244.992 184.706 244.639 185.503 244.292C186.223 243.985 186.944 243.688 187.677 243.404C187.903 243.313 188.127 243.224 188.355 243.134C196.841 239.905 206.01 238.118 215.533 238.086L219.321 238.073C256.493 239.573 287.716 267.625 292.551 304.414L293.431 311.132H293.203C293.203 354.332 257.931 390.828 216.181 390.828C173.712 390.828 139.159 356.548 139.159 314.409" fill="black"/>
<path d="M486.401 294V139.818H547.23C558.924 139.818 568.887 142.052 577.118 146.518C585.349 150.935 591.623 157.083 595.939 164.963C600.305 172.793 602.489 181.827 602.489 192.065C602.489 202.304 600.28 211.338 595.864 219.168C591.447 226.997 585.048 233.095 576.666 237.462C568.335 241.828 558.247 244.011 546.402 244.011H507.631V217.888H541.132C547.406 217.888 552.575 216.809 556.641 214.651C560.756 212.442 563.818 209.406 565.825 205.541C567.883 201.626 568.912 197.134 568.912 192.065C568.912 186.946 567.883 182.479 565.825 178.665C563.818 174.8 560.756 171.814 556.641 169.706C552.525 167.548 547.305 166.469 540.982 166.469H518.999V294H486.401ZM623.06 294V178.364H655.131V294H623.06ZM639.171 163.457C634.403 163.457 630.312 161.876 626.9 158.714C623.537 155.502 621.855 151.663 621.855 147.196C621.855 142.779 623.537 138.99 626.9 135.828C630.312 132.616 634.403 131.01 639.171 131.01C643.939 131.01 648.004 132.616 651.367 135.828C654.78 138.99 656.486 142.779 656.486 147.196C656.486 151.663 654.78 155.502 651.367 158.714C648.004 161.876 643.939 163.457 639.171 163.457ZM709.881 260.724L709.957 222.254H714.624L751.664 178.364H788.478L738.715 236.483H731.112L709.881 260.724ZM680.822 294V139.818H712.893V294H680.822ZM753.094 294L719.066 243.635L740.447 220.974L790.661 294H753.094ZM900.425 211.338L871.065 213.145C870.563 210.635 869.484 208.377 867.827 206.369C866.171 204.312 863.988 202.68 861.278 201.476C858.618 200.221 855.431 199.594 851.717 199.594C846.748 199.594 842.557 200.648 839.144 202.756C835.731 204.813 834.025 207.574 834.025 211.037C834.025 213.797 835.129 216.131 837.337 218.038C839.546 219.946 843.335 221.476 848.705 222.631L869.634 226.847C880.877 229.155 889.258 232.869 894.779 237.989C900.3 243.108 903.06 249.833 903.06 258.165C903.06 265.743 900.827 272.393 896.36 278.115C891.943 283.837 885.871 288.304 878.141 291.516C870.462 294.678 861.604 296.259 851.566 296.259C836.258 296.259 824.062 293.071 814.978 286.697C805.944 280.273 800.649 271.54 799.093 260.499L830.637 258.842C831.591 263.51 833.899 267.073 837.563 269.533C841.227 271.942 845.92 273.146 851.641 273.146C857.263 273.146 861.78 272.067 865.192 269.909C868.656 267.701 870.412 264.865 870.462 261.402C870.412 258.491 869.183 256.107 866.773 254.25C864.364 252.343 860.65 250.887 855.631 249.884L835.606 245.893C824.313 243.635 815.906 239.72 810.386 234.149C804.915 228.578 802.18 221.476 802.18 212.844C802.18 205.416 804.187 199.017 808.202 193.646C812.268 188.276 817.964 184.135 825.292 181.224C832.67 178.313 841.302 176.858 851.19 176.858C865.795 176.858 877.288 179.945 885.67 186.118C894.102 192.291 899.02 200.698 900.425 211.338ZM943.055 337.364C938.99 337.364 935.175 337.037 931.612 336.385C928.099 335.783 925.188 335.005 922.879 334.051L930.106 310.111C933.87 311.265 937.258 311.893 940.27 311.993C943.331 312.093 945.966 311.391 948.174 309.885C950.433 308.379 952.265 305.82 953.67 302.206L955.552 297.312L914.071 178.364H947.798L971.738 263.284H972.943L997.109 178.364H1031.06L986.118 306.497C983.959 312.721 981.023 318.141 977.309 322.759C973.645 327.426 969.003 331.015 963.382 333.524C957.761 336.084 950.985 337.364 943.055 337.364Z" fill="black"/>
</svg>
